<svg id="Layer_1" data-name="Layer 1" xmlns="http://www.w3.org/2000/svg" viewBox="0 0 172.332 50"><defs><style>.cls-1{fill:#134874;}.cls-2{fill:#fff;}</style></defs><title>TSI_logo_EN_blue</title><path class="cls-1" d="M5.96693,0S0,0,0,6.05708V44.03281S0,50,5.96693,50h37.974s6.05826,0,6.05826-5.96719V6.05708S49.99919,0,43.94093,0Z"/><polygon class="cls-2" points="13.562 32.188 16.817 32.188 16.817 20.614 20.704 20.614 20.704 17.903 9.765 17.903 9.765 20.614 13.562 20.614 13.562 32.188 13.562 32.188"/><path class="cls-2" d="M22.78435,31.283a9.49637,9.49637,0,0,0,3.79692.81559c3.61862,0,5.24491-1.99029,5.24491-4.25134,0-1.897-1.08574-3.163-3.34477-4.06716-1.71845-.72313-2.44273-1.08622-2.44273-1.99023,0-.633.54259-1.266,1.89987-1.266a5.964,5.964,0,0,1,2.71175.633l.633-2.53a7.50233,7.50233,0,0,0-3.34477-.63416c-3.07462,0-4.97277,1.71843-4.97277,4.06905,0,1.98833,1.44574,3.25549,3.61549,4.0679,1.62828.63306,2.26129,1.08463,2.26129,1.90022,0,.90363-.72343,1.53669-2.0796,1.53669a6.95843,6.95843,0,0,1-3.34477-.90492L22.78435,31.283Z"/><polygon class="cls-2" points="35.805 32.188 39.06 32.188 39.06 17.902 35.805 17.902 35.805 32.188 35.805 32.188"/><path class="cls-1" d="M60.38407.79385a2.41314,2.41314,0,0,1-.0165.3007.79934.79934,0,0,1-.04549.201.2783.2783,0,0,1-.0748.112.15824.15824,0,0,1-.10152.03723H58.17822v6.3358a.163.163,0,0,1-.03925.10807.26774.26774,0,0,1-.13082.07874,1.24569,1.24569,0,0,1-.24654.04978,3.327,3.327,0,0,1-.3856.01843,3.36839,3.36839,0,0,1-.38562-.01843,1.25619,1.25619,0,0,1-.24483-.04978.249.249,0,0,1-.13052-.07874.16169.16169,0,0,1-.03955-.10807V1.44485H54.60594a.147.147,0,0,1-.1015-.03723.27783.27783,0,0,1-.07452-.112.91024.91024,0,0,1-.04578-.201c-.00825-.08309-.0145-.18234-.0145-.3007,0-.12019.00625-.22367.0145-.30872a.906.906,0,0,1,.04578-.20335.25469.25469,0,0,1,.07452-.10972.154.154,0,0,1,.1015-.03331h5.53982a.16566.16566,0,0,1,.10152.03331.25512.25512,0,0,1,.0748.10972.79811.79811,0,0,1,.04549.20335,2.55566,2.55566,0,0,1,.0165.30872Z"/><path class="cls-1" d="M67.14527,7.79118a.23544.23544,0,0,1-.025.114.19935.19935,0,0,1-.116.07452,1.113,1.113,0,0,1-.2676.04353q-.174.01277-.47885.01243c-.17007,0-.30686-.00392-.40639-.01243a.96745.96745,0,0,1-.2403-.04555.27808.27808,0,0,1-.12454-.085.51248.51248,0,0,1-.06229-.12436l-.70267-1.7559q-.12756-.29859-.24883-.529a1.76988,1.76988,0,0,0-.27159-.38556,1.00573,1.00573,0,0,0-.34209-.234,1.20492,1.20492,0,0,0-.44987-.07911h-.49764V7.78065a.17394.17394,0,0,1-.03924.10807.26774.26774,0,0,1-.13082.07874,1.28588,1.28588,0,0,1-.24456.04978,3.30947,3.30947,0,0,1-.38758.01843,3.36827,3.36827,0,0,1-.38562-.01843,1.24472,1.24472,0,0,1-.24683-.04978.236.236,0,0,1-.12655-.07874.172.172,0,0,1-.03724-.10807V.64261A.48437.48437,0,0,1,61.44991.257.49806.49806,0,0,1,61.788.13875h2.03383q.311,0,.50986.01249c.1348.00826.25509.01849.36486.029a3.36614,3.36614,0,0,1,.85424.23206,2.05075,2.05075,0,0,1,.64268.42709,1.79054,1.79054,0,0,1,.4044.62614,2.29,2.29,0,0,1,.13875.8293,2.43636,2.43636,0,0,1-.09953.71945,1.84518,1.84518,0,0,1-.29432.58071,1.97676,1.97676,0,0,1-.48087.44355,2.59693,2.59693,0,0,1-.64894.3026,1.89219,1.89219,0,0,1,.33158.20733,1.77248,1.77248,0,0,1,.29034.29464,2.84794,2.84794,0,0,1,.25906.39383,5.11808,5.11808,0,0,1,.23632.5016l.66144,1.5487c.06227.15356.10152.26757.12228.33811a.63551.63551,0,0,1,.03129.16581ZM65.08443,2.45864a1.15749,1.15749,0,0,0-.17632-.65523.94985.94985,0,0,0-.57642-.377,1.82372,1.82372,0,0,0-.27555-.04776,3.80062,3.80062,0,0,0-.42939-.01874h-.71519V3.58877h.81274a1.90017,1.90017,0,0,0,.59516-.08309,1.15774,1.15774,0,0,0,.42486-.23.93709.93709,0,0,0,.2551-.35458,1.18587,1.18587,0,0,0,.085-.46241Z"/><path class="cls-1" d="M74.75616,7.40359a2.23111,2.23111,0,0,1,.09129.34608.20988.20988,0,0,1-.04978.19079.38489.38489,0,0,1-.23629.07874c-.114.01029-.26959.01647-.46867.01647-.2053,0-.36712-.00392-.48314-.01016a1.34172,1.34172,0,0,1-.26332-.03527.249.249,0,0,1-.12853-.07678.465.465,0,0,1-.06-.12853l-.52865-1.57771H69.67672l-.49763,1.53614a.49955.49955,0,0,1-.06429.14309.263.263,0,0,1-.12653.09124,1.00729,1.00729,0,0,1-.24881.04555q-.1617.01277-.42286.01243a4.01038,4.01038,0,0,1-.43738-.01843.32368.32368,0,0,1-.21783-.08927.23071.23071,0,0,1-.0435-.1968,2.08011,2.08011,0,0,1,.09128-.34013L70.13287.41857a.62744.62744,0,0,1,.085-.16777.31812.31812,0,0,1,.15529-.09754,1.30916,1.30916,0,0,1,.29458-.04151c.1243-.00625.29235-.01023.49737-.01023.23859,0,.42941.004.57245.01023a1.63443,1.63443,0,0,1,.32957.04151.30985.30985,0,0,1,.17006.10152.55028.55028,0,0,1,.089.18259l2.43,6.96622ZM71.14663,1.63993h-.00624L70.02906,4.97986H72.258L71.14663,1.63993Z"/><path class="cls-1" d="M82.33605,7.43886a.64623.64623,0,0,1-.04778.2508.53619.53619,0,0,1-.13051.18026.51145.51145,0,0,1-.1951.10777.85251.85251,0,0,1-.22806.03331h-.67992a1.3576,1.3576,0,0,1-.36685-.04354.714.714,0,0,1-.28635-.15356,1.33216,1.33216,0,0,1-.25281-.30481,5.15239,5.15239,0,0,1-.27157-.49541l-1.957-3.67375c-.112-.21982-.22807-.45415-.34636-.707-.116-.25306-.22181-.49964-.31506-.73831h-.01253q.02476.43561.03725.87081c.00626.29036.01051.589.01051.8958V7.77465a.18069.18069,0,0,1-.03326.10782.23976.23976,0,0,1-.114.08267.91144.91144,0,0,1-.22182.0521,2.85593,2.85593,0,0,1-.35858.01843,2.7965,2.7965,0,0,1-.35262-.01843.8646.8646,0,0,1-.21954-.0521.22985.22985,0,0,1-.10806-.08267.19366.19366,0,0,1-.031-.10782V.70892A.53124.53124,0,0,1,76.023.28178a.6021.6021,0,0,1,.40834-.143h.85824a1.59281,1.59281,0,0,1,.38789.03949.81468.81468,0,0,1,.2818.13054.98984.98984,0,0,1,.23431.25282,3.12147,3.12147,0,0,1,.2238.39616L79.94961,3.8313c.08931.174.17631.34607.26334.51415.087.16777.172.33585.2528.50362.081.16807.15981.33382.2366.49566q.11475.24275.22379.48512h.00628c-.01252-.284-.02077-.57838-.027-.88722-.00626-.30683-.00824-.60147-.00824-.87927V.375a.19206.19206,0,0,1,.03527-.10973.31785.31785,0,0,1,.12226-.085.78469.78469,0,0,1,.22381-.04978A3.31659,3.31659,0,0,1,81.63735.114a3.14315,3.14315,0,0,1,.34609.01647A.67423.67423,0,0,1,82.199.18026a.236.236,0,0,1,.10579.085A.20425.20425,0,0,1,82.33605.375V7.43886Z"/><path class="cls-1" d="M88.70708,5.64133a2.447,2.447,0,0,1-.23,1.0883,2.24129,2.24129,0,0,1-.62621.77946,2.70908,2.70908,0,0,1-.92251.47062,4.21886,4.21886,0,0,1-1.88679.09123,4.24873,4.24873,0,0,1-.61564-.1595,2.72008,2.72008,0,0,1-.4479-.19906,1.22723,1.22723,0,0,1-.25707-.18253.43279.43279,0,0,1-.112-.22588,2.06214,2.06214,0,0,1-.033-.42935c0-.12625.004-.23.01023-.31509a1.00783,1.00783,0,0,1,.03952-.20726.22954.22954,0,0,1,.07452-.11175.16378.16378,0,0,1,.10579-.0333.51372.51372,0,0,1,.24057.09956,3.89116,3.89116,0,0,0,.39814.22177,3.55009,3.55009,0,0,0,.57839.22184,2.77657,2.77657,0,0,0,.78145.0995,1.82463,1.82463,0,0,0,.52239-.06852,1.19719,1.19719,0,0,0,.39186-.19906.829.829,0,0,0,.24484-.31509.98834.98834,0,0,0,.085-.41857.72938.72938,0,0,0-.14532-.45843,1.40121,1.40121,0,0,0-.37934-.33983,3.9909,3.9909,0,0,0-.53065-.28006c-.19906-.08707-.40436-.18033-.61368-.2756a5.64944,5.64944,0,0,1-.61365-.33187,2.54576,2.54576,0,0,1-.53293-.44361,2.10175,2.10175,0,0,1-.37935-.60943,2.207,2.207,0,0,1-.14529-.846,2.24707,2.24707,0,0,1,.20957-.993A2.00717,2.00717,0,0,1,84.48393.5616a2.3982,2.3982,0,0,1,.83773-.42285A3.661,3.661,0,0,1,86.34568,0a3.62362,3.62362,0,0,1,.55765.04121A3.71985,3.71985,0,0,1,87.426.15755a2.89744,2.89744,0,0,1,.4311.16379.976.976,0,0,1,.24883.1513.44277.44277,0,0,1,.083.10348.50841.50841,0,0,1,.035.112,1.14532,1.14532,0,0,1,.023.17622c.002.07053.004.15962.004.26537,0,.116-.002.21559-.00825.2966a1.12177,1.12177,0,0,1-.031.20108.21267.21267,0,0,1-.06028.114.1501.1501,0,0,1-.10577.03729.51435.51435,0,0,1-.21328-.08505c-.09753-.056-.21582-.118-.35889-.18455a3.10911,3.10911,0,0,0-.49137-.18228,2.11982,2.11982,0,0,0-.6137-.083,1.4209,1.4209,0,0,0-.45385.06423.91917.91917,0,0,0-.32559.17634.698.698,0,0,0-.19481.2696.9075.9075,0,0,0-.06426.33352.73975.73975,0,0,0,.143.45415,1.39919,1.39919,0,0,0,.3836.34013,3.78209,3.78209,0,0,0,.54316.2778c.203.087.40836.18033.61994.27787a6.531,6.531,0,0,1,.61962.3296,2.5205,2.5205,0,0,1,.53918.44355,2.0935,2.0935,0,0,1,.38361.60746,2.13456,2.13456,0,0,1,.145.82325Z"/><path class="cls-1" d="M95.31046,2.5252a3.08864,3.08864,0,0,1-.20728,1.17329,2.24494,2.24494,0,0,1-.60147.85826,2.65155,2.65155,0,0,1-.968.53289,4.52782,4.52782,0,0,1-1.3519.18259h-.65519V7.78065a.17383.17383,0,0,1-.03925.10807.26754.26754,0,0,1-.13079.07874,1.28613,1.28613,0,0,1-.24458.04978,3.30942,3.30942,0,0,1-.38759.01843,3.36777,3.36777,0,0,1-.3856-.01843,1.24429,1.24429,0,0,1-.24682-.04978.236.236,0,0,1-.12657-.07874.172.172,0,0,1-.03725-.10807V.70892a.56683.56683,0,0,1,.1493-.42714.543.543,0,0,1,.39185-.143H92.3206c.18681,0,.36515.00624.5329.02075a5.86833,5.86833,0,0,1,.60344.0913,2.64406,2.64406,0,0,1,.7132.25906,2.07722,2.07722,0,0,1,.61767.47687,1.97345,1.97345,0,0,1,.38786.67371,2.63087,2.63087,0,0,1,.13479.86476Zm-1.67125.116a1.40479,1.40479,0,0,0-.145-.6799,1.01964,1.01964,0,0,0-.3586-.3961,1.18875,1.18875,0,0,0-.44589-.15957,3.32335,3.32335,0,0,0-.48314-.03325h-.67993V4.03856h.7152a1.74033,1.74033,0,0,0,.64066-.10372,1.112,1.112,0,0,0,.42317-.28809,1.23775,1.23775,0,0,0,.24855-.44361,1.80369,1.80369,0,0,0,.085-.562Z"/><path class="cls-1" d="M103.61778,3.97831a5.81429,5.81429,0,0,1-.24257,1.74776,3.50625,3.50625,0,0,1-.72345,1.31033,3.13234,3.13234,0,0,1-1.18581.819,4.39687,4.39687,0,0,1-1.638.28178A4.8487,4.8487,0,0,1,98.22727,7.899a2.76274,2.76274,0,0,1-1.13807-.732A3.12994,3.12994,0,0,1,96.405,5.9149a6.30778,6.30778,0,0,1-.22808-1.79753,5.58188,5.58188,0,0,1,.24456-1.71672A3.51135,3.51135,0,0,1,97.14294,1.105,3.15187,3.15187,0,0,1,98.331.2838,4.36272,4.36272,0,0,1,99.973,0a4.81962,4.81962,0,0,1,1.57768.23629A2.76645,2.76645,0,0,1,102.691.964a3.16111,3.16111,0,0,1,.69244,1.24383,5.91008,5.91008,0,0,1,.23433,1.77047Zm-1.67523.08505a6.05018,6.05018,0,0,0-.09725-1.1278,2.4204,2.4204,0,0,0-.33185-.86879,1.57259,1.57259,0,0,0-.62193-.55763,2.12189,2.12189,0,0,0-.97226-.19906,2.00163,2.00163,0,0,0-.98478.22178,1.83963,1.83963,0,0,0-.63669.5932,2.48345,2.48345,0,0,0-.3441.86451,5.33607,5.33607,0,0,0-.09954,1.049,6.2939,6.2939,0,0,0,.09755,1.15689,2.48216,2.48216,0,0,0,.32758.87694,1.49961,1.49961,0,0,0,.62.55572,2.19362,2.19362,0,0,0,.9785.19275,2.01561,2.01561,0,0,0,.98279-.21981,1.75847,1.75847,0,0,0,.63842-.59485,2.50022,2.50022,0,0,0,.34208-.877,5.3063,5.3063,0,0,0,.10152-1.06584Z"/><path class="cls-1" d="M110.79358,7.79118a.23578.23578,0,0,1-.025.114.19925.19925,0,0,1-.116.07452,1.113,1.113,0,0,1-.26761.04353q-.174.01277-.47888.01243c-.17,0-.3068-.00392-.40636-.01243a.96783.96783,0,0,1-.2403-.04555.2782.2782,0,0,1-.12454-.085.51206.51206,0,0,1-.06225-.12436l-.7027-1.7559q-.12754-.29859-.24882-.529a1.77017,1.77017,0,0,0-.27157-.38556,1.00654,1.00654,0,0,0-.3421-.234,1.205,1.205,0,0,0-.44989-.07911h-.49764V7.78065a.174.174,0,0,1-.03925.10807.26768.26768,0,0,1-.13079.07874,1.28583,1.28583,0,0,1-.24457.04978,3.31,3.31,0,0,1-.3876.01843,3.36789,3.36789,0,0,1-.3856-.01843,1.24543,1.24543,0,0,1-.24685-.04978.23593.23593,0,0,1-.12653-.07874.1719.1719,0,0,1-.03726-.10807V.64261a.48434.48434,0,0,1,.1368-.38557.49808.49808,0,0,1,.33812-.11829h2.03382q.31092,0,.50986.01249c.13479.00826.25507.01849.36486.029a3.36587,3.36587,0,0,1,.85422.23206,2.05091,2.05091,0,0,1,.64269.42709,1.79013,1.79013,0,0,1,.40435.62614,2.28939,2.28939,0,0,1,.13878.8293,2.43671,2.43671,0,0,1-.0995.71945,1.8456,1.8456,0,0,1-.29432.58071,1.977,1.977,0,0,1-.48089.44355,2.597,2.597,0,0,1-.64891.3026,1.89314,1.89314,0,0,1,.33156.20733,1.77326,1.77326,0,0,1,.29034.29464,2.84891,2.84891,0,0,1,.25908.39383,5.12744,5.12744,0,0,1,.2363.5016l.66142,1.5487c.06228.15356.10155.26757.12231.33811a.63521.63521,0,0,1,.03126.16581Zm-2.06083-5.33254a1.15749,1.15749,0,0,0-.17631-.65523.94985.94985,0,0,0-.57641-.377,1.82408,1.82408,0,0,0-.27556-.04776,3.80074,3.80074,0,0,0-.42939-.01874h-.7152V3.58877h.8127a1.90052,1.90052,0,0,0,.59522-.08309,1.15785,1.15785,0,0,0,.42485-.23.93685.93685,0,0,0,.25509-.35458,1.18551,1.18551,0,0,0,.085-.46241Z"/><path class="cls-1" d="M117.07335.79385a2.41959,2.41959,0,0,1-.01647.3007.79964.79964,0,0,1-.04552.201.2787.2787,0,0,1-.0748.112.15828.15828,0,0,1-.10152.03723H114.8675v6.3358a.1628.1628,0,0,1-.03928.10807.26761.26761,0,0,1-.13081.07874,1.24513,1.24513,0,0,1-.24652.04978,3.32732,3.32732,0,0,1-.3856.01843,3.369,3.369,0,0,1-.38565-.01843,1.2563,1.2563,0,0,1-.2448-.04978.24923.24923,0,0,1-.13055-.07874.16182.16182,0,0,1-.03952-.10807V1.44485h-1.96953a.1471.1471,0,0,1-.10152-.03723.278.278,0,0,1-.07455-.112.91144.91144,0,0,1-.04577-.201c-.00823-.08309-.01451-.18234-.01451-.3007,0-.12019.00628-.22367.01451-.30872a.90715.90715,0,0,1,.04577-.20335.2548.2548,0,0,1,.07455-.10972.15407.15407,0,0,1,.10152-.03331h5.5398a.1657.1657,0,0,1,.10152.03331.25546.25546,0,0,1,.0748.10972.79839.79839,0,0,1,.04552.20335,2.56251,2.56251,0,0,1,.01647.30872Z"/><path class="cls-1" d="M127.25325,7.40359a2.22881,2.22881,0,0,1,.09129.34608.20986.20986,0,0,1-.04978.19079.38489.38489,0,0,1-.23629.07874c-.11407.01029-.26959.01647-.46865.01647-.20534,0-.36714-.00392-.48317-.01016a1.342,1.342,0,0,1-.26332-.03527.24891.24891,0,0,1-.12852-.07678.46616.46616,0,0,1-.06-.12853l-.5286-1.57771h-2.95234l-.49768,1.53614a.49924.49924,0,0,1-.06423.14309.26321.26321,0,0,1-.12656.09124,1.00729,1.00729,0,0,1-.24881.04555q-.16174.01277-.42286.01243a4.01045,4.01045,0,0,1-.43739-.01843.3236.3236,0,0,1-.2178-.08927.23051.23051,0,0,1-.0435-.1968,2.08071,2.08071,0,0,1,.09126-.34013L122.62994.41857a.62745.62745,0,0,1,.085-.16777.318.318,0,0,1,.15522-.09754,1.30992,1.30992,0,0,1,.29461-.04151c.12433-.00625.29235-.01023.49738-.01023.23861,0,.42943.004.57244.01023a1.63472,1.63472,0,0,1,.32963.04151.30984.30984,0,0,1,.17.10152.55124.55124,0,0,1,.08906.18259l2.42992,6.96622Zm-3.60953-5.76366h-.00624l-1.11133,3.33993h2.2289l-1.11133-3.33993Z"/><path class="cls-1" d="M134.83315,7.43886a.6466.6466,0,0,1-.04776.2508.53688.53688,0,0,1-.13057.18026.51139.51139,0,0,1-.19505.10777.853.853,0,0,1-.22808.03331h-.6799a1.35789,1.35789,0,0,1-.36686-.04354.71361.71361,0,0,1-.28635-.15356,1.33218,1.33218,0,0,1-.25282-.30481,5.16541,5.16541,0,0,1-.27158-.49541l-1.957-3.67375c-.11209-.21982-.22812-.45415-.34641-.707-.116-.25306-.22181-.49964-.31506-.73831h-.01253q.02481.43561.03729.87081c.00625.29036.01047.589.01047.8958V7.77465a.18053.18053,0,0,1-.03324.10782.23954.23954,0,0,1-.114.08267.91129.91129,0,0,1-.22184.0521,2.856,2.856,0,0,1-.35857.01843,2.79617,2.79617,0,0,1-.35262-.01843.86487.86487,0,0,1-.21957-.0521.23014.23014,0,0,1-.108-.08267.19375.19375,0,0,1-.031-.10782V.70892a.53116.53116,0,0,1,.16811-.42714.602.602,0,0,1,.40835-.143h.85823a1.59276,1.59276,0,0,1,.38789.03949.81424.81424,0,0,1,.28178.13054.99006.99006,0,0,1,.23433.25282,3.12868,3.12868,0,0,1,.22383.39616L132.4467,3.8313c.08928.174.17632.34607.26329.51415.08707.16777.17206.33585.25282.50362.08107.16807.15985.33382.2366.49566q.11475.24275.22382.48512h.00625c-.01252-.284-.02076-.57838-.027-.88722-.00625-.30683-.00827-.60147-.00827-.87927V.375a.19228.19228,0,0,1,.03527-.10973.31824.31824,0,0,1,.12231-.085.78414.78414,0,0,1,.22376-.04978,3.31753,3.31753,0,0,1,.3589-.01647,3.14256,3.14256,0,0,1,.34608.01647.674.674,0,0,1,.21553.04978.23583.23583,0,0,1,.10577.085.20429.20429,0,0,1,.03132.10973V7.43886Z"/><path class="cls-1" d="M143.07649,3.95358a5.37054,5.37054,0,0,1-.28411,1.84927,3.1394,3.1394,0,0,1-.81072,1.25436,3.2487,3.2487,0,0,1-1.28335.71321,6.32,6.32,0,0,1-1.80152.228h-1.87625a.498.498,0,0,1-.33811-.11829.48418.48418,0,0,1-.13682-.38557V.64261A.48428.48428,0,0,1,136.68243.257a.498.498,0,0,1,.33811-.11829h2.015a5.6403,5.6403,0,0,1,1.78305.24682,3.2397,3.2397,0,0,1,1.23361.72772,3.12107,3.12107,0,0,1,.763,1.19405,4.75693,4.75693,0,0,1,.26133,1.64624Zm-1.65248.05376a3.94963,3.94963,0,0,0-.13055-1.03859,2.20874,2.20874,0,0,0-.42086-.83145,1.919,1.919,0,0,0-.74022-.54942,2.98118,2.98118,0,0,0-1.18808-.19906h-.80652V6.73588h.83154a3.16617,3.16617,0,0,0,1.105-.17,1.86314,1.86314,0,0,0,.75044-.51415,2.21133,2.21133,0,0,0,.44992-.85428,4.24855,4.24855,0,0,0,.14928-1.19007Z"/><path class="cls-1" d="M60.38407,12.83563a2.41106,2.41106,0,0,1-.0165.30058.79807.79807,0,0,1-.04549.201.2778.2778,0,0,1-.0748.112.15824.15824,0,0,1-.10152.03723H58.17822v6.3358a.163.163,0,0,1-.03925.10807.2673.2673,0,0,1-.13082.07874,1.24569,1.24569,0,0,1-.24654.04978,3.33836,3.33836,0,0,1-.3856.0185,3.38022,3.38022,0,0,1-.38562-.0185,1.25619,1.25619,0,0,1-.24483-.04978.24859.24859,0,0,1-.13052-.07874.16169.16169,0,0,1-.03955-.10807v-6.3358H54.60594a.147.147,0,0,1-.1015-.03723.27733.27733,0,0,1-.07452-.112.90859.90859,0,0,1-.04578-.201c-.00825-.083-.0145-.18228-.0145-.30058,0-.12031.00625-.22385.0145-.30884a.90677.90677,0,0,1,.04578-.20335.2553.2553,0,0,1,.07452-.10978.1543.1543,0,0,1,.1015-.03325h5.53982a.166.166,0,0,1,.10152.03325.25573.25573,0,0,1,.0748.10978.79873.79873,0,0,1,.04549.20335,2.55564,2.55564,0,0,1,.0165.30884Z"/><path class="cls-1" d="M65.97167,19.414a2.30452,2.30452,0,0,1-.01451.29427.768.768,0,0,1-.0455.19312.25091.25091,0,0,1-.07678.1055.15859.15859,0,0,1-.09953.03331H61.788a.49865.49865,0,0,1-.33809-.1183.48447.48447,0,0,1-.13679-.38569V12.68433a.48431.48431,0,0,1,.13679-.38562.49831.49831,0,0,1,.33809-.1183h3.92261a.16167.16167,0,0,1,.09725.031.21648.21648,0,0,1,.07254.10575.80437.80437,0,0,1,.04577.19508,2.37313,2.37313,0,0,1,.01649.30058,2.28066,2.28066,0,0,1-.01649.28808.74326.74326,0,0,1-.04577.1908.23777.23777,0,0,1-.07254.1058.15.15,0,0,1-.09725.033H62.90529v1.92h2.37392a.17876.17876,0,0,1,.10152.03295.2727.2727,0,0,1,.0748.10384.70683.70683,0,0,1,.04551.18847,2.91622,2.91622,0,0,1,0,.58071.675.675,0,0,1-.04551.1843.21567.21567,0,0,1-.0748.09956.17792.17792,0,0,1-.10152.03123H62.90529v2.2161h2.83006a.16252.16252,0,0,1,.09953.03527.22748.22748,0,0,1,.07678.10581.73084.73084,0,0,1,.0455.19079,2.32958,2.32958,0,0,1,.01451.29434Z"/><path class="cls-1" d="M71.70031,19.37245a2.53369,2.53369,0,0,1-.01479.30683.883.883,0,0,1-.04549.2053.24793.24793,0,0,1-.07679.1183.16134.16134,0,0,1-.10579.03729h-3.601a.49883.49883,0,0,1-.33813-.1183.48459.48459,0,0,1-.13675-.38569V12.39827a.1619.1619,0,0,1,.0395-.10808.26508.26508,0,0,1,.13053-.07874,1.26436,1.26436,0,0,1,.24655-.04978,3.3759,3.3759,0,0,1,.38588-.01855,3.33228,3.33228,0,0,1,.38762.01855,1.25183,1.25183,0,0,1,.24257.04978.24758.24758,0,0,1,.13052.07874.16383.16383,0,0,1,.04152.10808v6.32324h2.47117a.18186.18186,0,0,1,.10579.03331.25024.25024,0,0,1,.07679.10973.8231.8231,0,0,1,.04549.20108,2.51456,2.51456,0,0,1,.01479.30682Z"/><path class="cls-1" d="M77.29986,19.414a2.30291,2.30291,0,0,1-.0145.29427.7684.7684,0,0,1-.04552.19312.251.251,0,0,1-.07675.1055.15869.15869,0,0,1-.09953.03331H73.11618a.49872.49872,0,0,1-.3381-.1183.4845.4845,0,0,1-.13679-.38569V12.68433a.48434.48434,0,0,1,.13679-.38562.49837.49837,0,0,1,.3381-.1183h3.92261a.1617.1617,0,0,1,.09726.031.21648.21648,0,0,1,.07253.10575.80157.80157,0,0,1,.04577.19508,2.37125,2.37125,0,0,1,.01649.30058,2.27878,2.27878,0,0,1-.01649.28808.74077.74077,0,0,1-.04577.1908.23776.23776,0,0,1-.07253.1058.15.15,0,0,1-.09726.033H74.23348v1.92h2.37393a.17881.17881,0,0,1,.10153.03295.27288.27288,0,0,1,.07478.10384.70722.70722,0,0,1,.04551.18847,2.91622,2.91622,0,0,1,0,.58071.67535.67535,0,0,1-.04551.1843.21578.21578,0,0,1-.07478.09956.178.178,0,0,1-.10153.03123H74.23348v2.2161h2.83008a.16263.16263,0,0,1,.09953.03527.22758.22758,0,0,1,.07675.10581.73117.73117,0,0,1,.04552.19079,2.32792,2.32792,0,0,1,.0145.29434Z"/><path class="cls-1" d="M83.96322,18.85c0,.10152-.002.18651-.00825.257a1.553,1.553,0,0,1-.027.18259.47888.47888,0,0,1-.04977.13054.57851.57851,0,0,1-.09725.12454,1.268,1.268,0,0,1-.25707.18033,3.06723,3.06723,0,0,1-.46863.20928,4.26048,4.26048,0,0,1-1.39939.23433,4.05068,4.05068,0,0,1-1.45769-.2508,2.87071,2.87071,0,0,1-1.10507-.74223,3.32192,3.32192,0,0,1-.69869-1.23789,5.54424,5.54424,0,0,1-.24456-1.725,5.459,5.459,0,0,1,.26758-1.7788,3.6892,3.6892,0,0,1,.74848-1.306,3.12066,3.12066,0,0,1,1.15056-.80249,3.87979,3.87979,0,0,1,1.47817-.27357,3.49839,3.49839,0,0,1,.63242.056,3.55539,3.55539,0,0,1,.56194.1431,2.76841,2.76841,0,0,1,.46437.203,1.41671,1.41671,0,0,1,.28806.1971.56163.56163,0,0,1,.112.13678.51638.51638,0,0,1,.04975.13906,1.62439,1.62439,0,0,1,.027.201c.006.07678.00824.17205.00824.28606,0,.12032-.00427.2238-.01053.30885a.79653.79653,0,0,1-.04351.20733.26994.26994,0,0,1-.0725.114.14275.14275,0,0,1-.09755.03753.42269.42269,0,0,1-.23006-.10581,3.72206,3.72206,0,0,0-.36286-.23855,2.91475,2.91475,0,0,0-.52663-.23641,2.26867,2.26867,0,0,0-.734-.10568,1.727,1.727,0,0,0-1.4594.73819,2.55588,2.55588,0,0,0-.39186.85826,4.98324,4.98324,0,0,0,.00825,2.33667,2.33348,2.33348,0,0,0,.40836.83549,1.66563,1.66563,0,0,0,.6367.48941,2.14171,2.14171,0,0,0,.84173.15951,2.39943,2.39943,0,0,0,.73368-.09956,3.02815,3.02815,0,0,0,.53293-.22178,4.17744,4.17744,0,0,0,.36484-.21982.44693.44693,0,0,1,.22181-.09527.16341.16341,0,0,1,.09555.02278.18828.18828,0,0,1,.062.09748.94408.94408,0,0,1,.03525.2031c.00854.087.01252.20322.01252.35029Z"/><path class="cls-1" d="M92.09025,16.02a5.81461,5.81461,0,0,1-.24256,1.74776,3.50685,3.50685,0,0,1-.72345,1.31039,3.1345,3.1345,0,0,1-1.18583.819,4.39793,4.39793,0,0,1-1.638.28178,4.84715,4.84715,0,0,1-1.60071-.2383,2.76222,2.76222,0,0,1-1.13806-.732,3.12966,3.12966,0,0,1-.68419-1.252,6.30782,6.30782,0,0,1-.22806-1.79753,5.58182,5.58182,0,0,1,.24456-1.71672,3.51,3.51,0,0,1,.72145-1.29563,3.15224,3.15224,0,0,1,1.18808-.82122,4.36277,4.36277,0,0,1,1.642-.28386,4.81968,4.81968,0,0,1,1.57768.23635,2.76583,2.76583,0,0,1,1.14032.72766,3.16177,3.16177,0,0,1,.69243,1.24389A5.91041,5.91041,0,0,1,92.09025,16.02Zm-1.67523.085a6.04966,6.04966,0,0,0-.09725-1.12774,2.4199,2.4199,0,0,0-.33185-.86873,1.57222,1.57222,0,0,0-.62193-.55769,2.12192,2.12192,0,0,0-.97226-.19906,2.00173,2.00173,0,0,0-.98478.22184,1.8388,1.8388,0,0,0-.6367.5932,2.48239,2.48239,0,0,0-.3441.86445,5.3354,5.3354,0,0,0-.09953,1.04906,6.29316,6.29316,0,0,0,.09754,1.15682,2.48269,2.48269,0,0,0,.32761.877,1.4994,1.4994,0,0,0,.61991.55566,2.19371,2.19371,0,0,0,.97854.19282,2.01549,2.01549,0,0,0,.98277-.21988,1.75871,1.75871,0,0,0,.63842-.59485,2.50023,2.50023,0,0,0,.34209-.877A5.30532,5.30532,0,0,0,90.415,16.105Z"/><path class="cls-1" d="M102.59349,19.82231a.18067.18067,0,0,1-.033.10807.223.223,0,0,1-.12257.07874,1.16934,1.16934,0,0,1-.232.04978,3.08942,3.08942,0,0,1-.37112.0185,3.01866,3.01866,0,0,1-.36483-.0185,1.08519,1.08519,0,0,1-.23036-.04978.23919.23919,0,0,1-.12226-.07874.17.17,0,0,1-.03527-.10807V13.42657h-.01223l-2.27865,6.3898a.29939.29939,0,0,1-.07879.13048.42139.42139,0,0,1-.1493.08076.98262.98262,0,0,1-.24057.03956c-.09524.00625-.21354.01023-.35034.01023a3.40819,3.40819,0,0,1-.35234-.01648,1.06172,1.06172,0,0,1-.24057-.04776.46209.46209,0,0,1-.1493-.08278.24135.24135,0,0,1-.07251-.114l-2.1996-6.3898h-.01053v6.39574a.18258.18258,0,0,1-.03524.10807.21313.21313,0,0,1-.12427.07874,1.20671,1.20671,0,0,1-.23235.04978,2.999,2.999,0,0,1-.36884.0185,2.96077,2.96077,0,0,1-.36285-.0185,1.16009,1.16009,0,0,1-.2343-.04978.221.221,0,0,1-.1223-.07874.179.179,0,0,1-.03327-.10807V12.8191a.64185.64185,0,0,1,.16379-.4749.5901.5901,0,0,1,.43736-.16379h1.04507a2.14076,2.14076,0,0,1,.47889.04549.93.93,0,0,1,.34635.15161.87278.87278,0,0,1,.24456.27982,2.09985,2.09985,0,0,1,.17006.42708l1.7,4.68332h.02477L99.80494,13.097a2.66,2.66,0,0,1,.17432-.43142.99915.99915,0,0,1,.21754-.28405.7251.7251,0,0,1,.29433-.15559,1.524,1.524,0,0,1,.39615-.04549h1.074a.88034.88034,0,0,1,.28379.04151.46737.46737,0,0,1,.1928.12657.52165.52165,0,0,1,.11633.19906.84741.84741,0,0,1,.03924.27155v7.00321Z"/><path class="cls-1" d="M113.46554,19.82231a.18058.18058,0,0,1-.033.10807.22315.22315,0,0,1-.12261.07874,1.169,1.169,0,0,1-.232.04978,3.08906,3.08906,0,0,1-.37112.0185,3.01877,3.01877,0,0,1-.36481-.0185,1.08542,1.08542,0,0,1-.23038-.04978.23917.23917,0,0,1-.12224-.07874.16988.16988,0,0,1-.03527-.10807V13.42657h-.01222l-2.27868,6.3898a.29948.29948,0,0,1-.07874.13048.422.422,0,0,1-.14931.08076.9828.9828,0,0,1-.24059.03956c-.09526.00625-.21356.01023-.35035.01023a3.40762,3.40762,0,0,1-.35232-.01648,1.06214,1.06214,0,0,1-.2406-.04776.46228.46228,0,0,1-.14926-.08278.24143.24143,0,0,1-.07255-.114l-2.1996-6.3898h-.0105v6.39574a.18261.18261,0,0,1-.03527.10807.213.213,0,0,1-.1243.07874,1.20546,1.20546,0,0,1-.23229.04978,2.99948,2.99948,0,0,1-.36885.0185,2.96135,2.96135,0,0,1-.36287-.0185,1.16029,1.16029,0,0,1-.23429-.04978.221.221,0,0,1-.1223-.07874.179.179,0,0,1-.03326-.10807V12.8191a.64193.64193,0,0,1,.16379-.4749.59007.59007,0,0,1,.43735-.16379h1.04508a2.14066,2.14066,0,0,1,.47888.04549.93033.93033,0,0,1,.34637.15161.87317.87317,0,0,1,.24457.27982,2.1045,2.1045,0,0,1,.17.42708l1.69993,4.68332h.02475L110.677,13.097a2.65907,2.65907,0,0,1,.17432-.43142.99827.99827,0,0,1,.21755-.28405.72471.72471,0,0,1,.29433-.15559,1.52377,1.52377,0,0,1,.39613-.04549h1.074a.88066.88066,0,0,1,.28384.04151.46719.46719,0,0,1,.19275.12657.52073.52073,0,0,1,.11631.19906.84655.84655,0,0,1,.03927.27155v7.00321Z"/><path class="cls-1" d="M121.59257,17.11281a3.66493,3.66493,0,0,1-.21357,1.29361,2.55851,2.55851,0,0,1-.6239.966,2.73574,2.73574,0,0,1-1.022.60147,4.87567,4.87567,0,0,1-2.72655.02075,2.59743,2.59743,0,0,1-.997-.562,2.48489,2.48489,0,0,1-.62225-.93927,3.66989,3.66989,0,0,1-.21553-1.31437V12.39827a.172.172,0,0,1,.03725-.10808.23425.23425,0,0,1,.13082-.07874,1.34091,1.34091,0,0,1,.24456-.04978,3.375,3.375,0,0,1,.38988-.01855,3.24223,3.24223,0,0,1,.38134.01855,1.3061,1.3061,0,0,1,.24456.04978.26753.26753,0,0,1,.13081.07874.17383.17383,0,0,1,.03919.10808V17.04a2.57374,2.57374,0,0,0,.11407.81075,1.50568,1.50568,0,0,0,.33184.56821,1.36151,1.36151,0,0,0,.51617.33585,1.922,1.922,0,0,0,.67167.114,1.85855,1.85855,0,0,0,.67393-.11633,1.30585,1.30585,0,0,0,.50365-.33781,1.49069,1.49069,0,0,0,.31934-.54513,2.26777,2.26777,0,0,0,.112-.73826v-4.733a.17211.17211,0,0,1,.03723-.10808.2346.2346,0,0,1,.12656-.07874,1.30082,1.30082,0,0,1,.24652-.04978,3.37468,3.37468,0,0,1,.38566-.01855,3.20675,3.20675,0,0,1,.37962.01855,1.28629,1.28629,0,0,1,.2403.04978.23447.23447,0,0,1,.12653.07874.17011.17011,0,0,1,.03726.10808v4.71454Z"/><path class="cls-1" d="M129.78019,19.48046a.64687.64687,0,0,1-.04779.25086.538.538,0,0,1-.13054.18026.51254.51254,0,0,1-.195.10783.85271.85271,0,0,1-.22812.03325h-.6799a1.35755,1.35755,0,0,1-.36683-.04354.71448.71448,0,0,1-.28637-.1535,1.33078,1.33078,0,0,1-.25279-.30487,5.15736,5.15736,0,0,1-.27159-.49535l-1.957-3.67381c-.112-.21982-.22808-.45415-.34638-.707-.116-.25306-.2218-.49964-.31509-.73819h-.01249q.02475.43553.03723.87076c.00631.29029.01053.58891.01053.89573v4.11345a.18075.18075,0,0,1-.03325.10777.24036.24036,0,0,1-.114.08272.91388.91388,0,0,1-.22181.052,2.86565,2.86565,0,0,1-.35859.0185,2.80566,2.80566,0,0,1-.35259-.0185.86784.86784,0,0,1-.21958-.052.23069.23069,0,0,1-.10807-.08272.19366.19366,0,0,1-.031-.10777V12.75058a.53124.53124,0,0,1,.16808-.42714.60242.60242,0,0,1,.40837-.143h.85824a1.59226,1.59226,0,0,1,.38786.03955.81239.81239,0,0,1,.28181.13055.98922.98922,0,0,1,.23433.25275,3.13256,3.13256,0,0,1,.2238.39616l1.53219,2.87354c.08924.17408.17631.34607.26329.51415.087.16777.17206.33585.25282.50362.08107.16808.15984.33389.23659.49566q.11472.24275.22383.48512h.00622c-.01253-.284-.02073-.57838-.027-.88722-.0063-.30683-.00829-.60141-.00829-.87933v-3.6882a.19232.19232,0,0,1,.03527-.10979.31907.31907,0,0,1,.1223-.085.78287.78287,0,0,1,.22377-.04972,3.3004,3.3004,0,0,1,.3589-.01653,3.12653,3.12653,0,0,1,.3461.01653.6724.6724,0,0,1,.2155.04972.23631.23631,0,0,1,.10581.085.20434.20434,0,0,1,.03132.10979v7.0637Z"/><path class="cls-1" d="M133.09734,19.82231a.16379.16379,0,0,1-.04149.10807.24781.24781,0,0,1-.13057.07874,1.23282,1.23282,0,0,1-.24256.04978,3.344,3.344,0,0,1-.38756.0185,3.39,3.39,0,0,1-.38594-.0185,1.2461,1.2461,0,0,1-.24651-.04978.26519.26519,0,0,1-.13057-.07874.16183.16183,0,0,1-.03953-.10807v-7.424a.16183.16183,0,0,1,.03953-.10808.26151.26151,0,0,1,.13452-.07874,1.31426,1.31426,0,0,1,.24483-.04978,4.01723,4.01723,0,0,1,.77123,0,1.25137,1.25137,0,0,1,.24256.04978.24787.24787,0,0,1,.13057.07874.1638.1638,0,0,1,.04149.10808v7.424Z"/><path class="cls-1" d="M140.24581,18.85c0,.10152-.00193.18651-.0082.257a1.5505,1.5505,0,0,1-.027.18259.47986.47986,0,0,1-.04975.13054.579.579,0,0,1-.0973.12454,1.2664,1.2664,0,0,1-.257.18033,3.06767,3.06767,0,0,1-.46863.20928,4.2601,4.2601,0,0,1-1.39939.23433,4.05082,4.05082,0,0,1-1.4577-.2508,2.871,2.871,0,0,1-1.10506-.74223,3.32288,3.32288,0,0,1-.69869-1.23789,5.54419,5.54419,0,0,1-.24459-1.725,5.45811,5.45811,0,0,1,.26764-1.7788,3.6887,3.6887,0,0,1,.74845-1.306,3.12108,3.12108,0,0,1,1.15054-.80249,3.88,3.88,0,0,1,1.47819-.27357,3.49872,3.49872,0,0,1,.63245.056,3.55321,3.55321,0,0,1,.56188.1431,2.76446,2.76446,0,0,1,.46437.203,1.41524,1.41524,0,0,1,.28806.1971.5619.5619,0,0,1,.11208.13678.51669.51669,0,0,1,.04978.13906,1.62336,1.62336,0,0,1,.027.201c.006.07678.00827.17205.00827.28606,0,.12032-.00426.2238-.01053.30885a.79653.79653,0,0,1-.04351.20733.26929.26929,0,0,1-.07253.114.14252.14252,0,0,1-.0975.03753.42252.42252,0,0,1-.23005-.10581,3.72143,3.72143,0,0,0-.36288-.23855,2.91392,2.91392,0,0,0-.52664-.23641,2.26869,2.26869,0,0,0-.734-.10568,1.727,1.727,0,0,0-1.45936.73819,2.55644,2.55644,0,0,0-.39184.85826,4.98288,4.98288,0,0,0,.00823,2.33667,2.3338,2.3338,0,0,0,.40835.83549,1.66528,1.66528,0,0,0,.63673.48941,2.14146,2.14146,0,0,0,.84173.15951,2.399,2.399,0,0,0,.73363-.09956,3.02679,3.02679,0,0,0,.53295-.22178,4.179,4.179,0,0,0,.36484-.21982.447.447,0,0,1,.22181-.09527.16341.16341,0,0,1,.09555.02278.188.188,0,0,1,.062.09748.9439.9439,0,0,1,.03527.2031c.00857.087.01249.20322.01249.35029Z"/><path class="cls-1" d="M147.834,19.44519a2.23021,2.23021,0,0,1,.09126.34614.20966.20966,0,0,1-.04978.19079.385.385,0,0,1-.23629.0788c-.11407.01017-.26959.01648-.46865.01648-.20534,0-.36711-.004-.48317-.01023a1.33665,1.33665,0,0,1-.26329-.03527.24827.24827,0,0,1-.12852-.07678.46284.46284,0,0,1-.06-.12852l-.52863-1.57772h-2.95234l-.49768,1.5362a.499.499,0,0,1-.06423.143.26348.26348,0,0,1-.12653.09129,1.00723,1.00723,0,0,1-.24884.04549q-.1617.01278-.42286.0125a4.02359,4.02359,0,0,1-.4374-.0185.32359.32359,0,0,1-.21779-.08927.23062.23062,0,0,1-.04351-.19686,2.08378,2.08378,0,0,1,.0913-.34007l2.42364-6.97247a.631.631,0,0,1,.085-.16777.319.319,0,0,1,.15528-.09754,1.30992,1.30992,0,0,1,.29461-.04151c.1243-.00625.29231-.01029.49737-.01029.23862,0,.42941.004.57245.01029a1.63478,1.63478,0,0,1,.3296.04151.31007.31007,0,0,1,.17.10152.54968.54968,0,0,1,.08906.18259l2.43,6.96616Zm-3.60956-5.7636h-.00621l-1.11136,3.34h2.22893l-1.11136-3.34Z"/><path class="cls-1" d="M153.19126,12.83563a2.40465,2.40465,0,0,1-.01653.30058.79546.79546,0,0,1-.04549.201.278.278,0,0,1-.07476.112.1584.1584,0,0,1-.10155.03723h-1.96752v6.3358a.1628.1628,0,0,1-.03928.10807.26731.26731,0,0,1-.13081.07874,1.24513,1.24513,0,0,1-.24652.04978,3.33886,3.33886,0,0,1-.38562.0185,3.38008,3.38008,0,0,1-.3856-.0185,1.25619,1.25619,0,0,1-.24483-.04978.24876.24876,0,0,1-.13057-.07874.16177.16177,0,0,1-.03953-.10807v-6.3358h-1.96953a.147.147,0,0,1-.10149-.03723.27746.27746,0,0,1-.07455-.112.91036.91036,0,0,1-.04577-.201c-.00823-.083-.01451-.18228-.01451-.30058,0-.12031.00628-.22385.01451-.30884a.9085.9085,0,0,1,.04577-.20335.25542.25542,0,0,1,.07455-.10978.15422.15422,0,0,1,.10149-.03325h5.53981a.16615.16615,0,0,1,.10155.03325.25587.25587,0,0,1,.07476.10978.79616.79616,0,0,1,.04549.20335,2.54883,2.54883,0,0,1,.01653.30884Z"/><path class="cls-1" d="M155.725,19.82231a.164.164,0,0,1-.04148.10807.24746.24746,0,0,1-.13055.07874,1.23234,1.23234,0,0,1-.24256.04978,3.34465,3.34465,0,0,1-.38762.0185,3.38845,3.38845,0,0,1-.38587-.0185,1.24475,1.24475,0,0,1-.24654-.04978.26474.26474,0,0,1-.13052-.07874.16154.16154,0,0,1-.03955-.10807v-7.424a.16155.16155,0,0,1,.03955-.10808.26106.26106,0,0,1,.1345-.07874,1.31426,1.31426,0,0,1,.24483-.04978,4.01712,4.01712,0,0,1,.77122,0,1.25088,1.25088,0,0,1,.24256.04978.24752.24752,0,0,1,.13055.07874.164.164,0,0,1,.04148.10808v7.424Z"/><path class="cls-1" d="M164.50722,16.02a5.81461,5.81461,0,0,1-.24256,1.74776,3.50738,3.50738,0,0,1-.72343,1.31039,3.135,3.135,0,0,1-1.18585.819,4.39808,4.39808,0,0,1-1.638.28178,4.84729,4.84729,0,0,1-1.60074-.2383,2.76242,2.76242,0,0,1-1.13806-.732,3.13,3.13,0,0,1-.68419-1.252,6.30785,6.30785,0,0,1-.228-1.79753,5.58273,5.58273,0,0,1,.24456-1.71672,3.51124,3.51124,0,0,1,.72141-1.29563,3.15274,3.15274,0,0,1,1.18811-.82122,4.3629,4.3629,0,0,1,1.642-.28386,4.81932,4.81932,0,0,1,1.57769.23635,2.76554,2.76554,0,0,1,1.14035.72766,3.16181,3.16181,0,0,1,.69246,1.24389,5.91171,5.91171,0,0,1,.23432,1.77047Zm-1.67522.085a6.0452,6.0452,0,0,0-.0973-1.12774,2.41988,2.41988,0,0,0-.33181-.86873,1.57207,1.57207,0,0,0-.622-.55769,2.12172,2.12172,0,0,0-.97222-.19906,2.00152,2.00152,0,0,0-.98476.22184,1.839,1.839,0,0,0-.63677.5932,2.482,2.482,0,0,0-.34405.86445,5.33536,5.33536,0,0,0-.09956,1.04906,6.29578,6.29578,0,0,0,.09754,1.15682,2.48348,2.48348,0,0,0,.32764.877,1.49945,1.49945,0,0,0,.61993.55566,2.19344,2.19344,0,0,0,.97852.19282,2.01554,2.01554,0,0,0,.98278-.21988,1.75876,1.75876,0,0,0,.63841-.59485,2.50158,2.50158,0,0,0,.3421-.877,5.30532,5.30532,0,0,0,.10152-1.0659Z"/><path class="cls-1" d="M172.332,19.48046a.64742.64742,0,0,1-.04776.25086.53707.53707,0,0,1-.13057.18026.51209.51209,0,0,1-.195.10783.85232.85232,0,0,1-.22809.03325h-.6799a1.35755,1.35755,0,0,1-.36683-.04354.71448.71448,0,0,1-.28637-.1535,1.33078,1.33078,0,0,1-.25279-.30487,5.15673,5.15673,0,0,1-.27162-.49535l-1.957-3.67381c-.11208-.21982-.228-.45415-.34635-.707-.116-.25306-.22183-.49964-.31509-.73819H167.242q.02475.43553.03723.87076c.00628.29029.01056.58891.01056.89573v4.11345a.1806.1806,0,0,1-.03331.10777.24005.24005,0,0,1-.114.08272.91388.91388,0,0,1-.22181.052,2.86565,2.86565,0,0,1-.35859.0185,2.8068,2.8068,0,0,1-.35263-.0185.86764.86764,0,0,1-.21951-.052.23043.23043,0,0,1-.108-.08272.1932.1932,0,0,1-.031-.10777V12.75058a.53124.53124,0,0,1,.16808-.42714.60234.60234,0,0,1,.40834-.143h.85824a1.59252,1.59252,0,0,1,.38789.03955.8125.8125,0,0,1,.28178.13055.98816.98816,0,0,1,.23433.25275,3.125,3.125,0,0,1,.22383.39616l1.53216,2.87354c.0893.17408.17631.34607.26332.51415.087.16777.17206.33585.25282.50362.08107.16808.15981.33389.23659.49566q.11477.24275.2238.48512h.00628c-.01253-.284-.02079-.57838-.027-.88722-.00627-.30683-.00823-.60141-.00823-.87933v-3.6882a.19232.19232,0,0,1,.03527-.10979.31846.31846,0,0,1,.12227-.085.7827.7827,0,0,1,.2238-.04972,3.299,3.299,0,0,1,.35887-.01653,3.12594,3.12594,0,0,1,.34607.01653.67241.67241,0,0,1,.21553.04972.23665.23665,0,0,1,.10581.085.20432.20432,0,0,1,.03129.10979v7.0637Z"/><path class="cls-1" d="M56.75808,31.86373a.16377.16377,0,0,1-.04155.108.2483.2483,0,0,1-.13051.0788,1.24158,1.24158,0,0,1-.24258.04978,3.34725,3.34725,0,0,1-.38759.01849,3.39175,3.39175,0,0,1-.3859-.01849,1.25417,1.25417,0,0,1-.24653-.04978.266.266,0,0,1-.13054-.0788.16167.16167,0,0,1-.03952-.108V24.43962a.16156.16156,0,0,1,.03952-.108.26174.26174,0,0,1,.13452-.0788,1.3236,1.3236,0,0,1,.24483-.04978,4.03,4.03,0,0,1,.77121,0,1.2604,1.2604,0,0,1,.24258.04978.24792.24792,0,0,1,.13051.0788.16365.16365,0,0,1,.04155.108v7.42411Z"/><path class="cls-1" d="M64.95163,31.52188a.64621.64621,0,0,1-.04779.25086.53722.53722,0,0,1-.13051.18026.51133.51133,0,0,1-.19509.10776.85217.85217,0,0,1-.22806.03331h-.67991a1.35816,1.35816,0,0,1-.36686-.04353.71451.71451,0,0,1-.28635-.15357,1.32972,1.32972,0,0,1-.25282-.30486,5.16759,5.16759,0,0,1-.27157-.49535l-1.957-3.67376c-.112-.21987-.22807-.45414-.34636-.707-.116-.25307-.22181-.49964-.31506-.73825h-.01252q.02475.43544.03724.87075c.00626.29035.01052.58891.01052.8958v4.11339a.18025.18025,0,0,1-.03327.1077.24.24,0,0,1-.114.08284.92.92,0,0,1-.22181.05205,2.86824,2.86824,0,0,1-.3586.01849,2.80844,2.80844,0,0,1-.35262-.01849.87147.87147,0,0,1-.21951-.05205.22988.22988,0,0,1-.10807-.08284.193.193,0,0,1-.031-.1077V24.792a.53106.53106,0,0,1,.16808-.42714.6018.6018,0,0,1,.40835-.143h.85823a1.58916,1.58916,0,0,1,.38788.0395.81456.81456,0,0,1,.28181.13054.98949.98949,0,0,1,.23431.25282,3.12079,3.12079,0,0,1,.22381.3961l1.53218,2.8736c.08931.174.17632.34607.26336.51415.087.16777.172.33584.25278.50361.081.16808.15982.33377.2366.49566q.11476.24265.22379.48513H63.548c-.01252-.28411-.02077-.57844-.027-.88723-.00626-.30682-.00824-.60146-.00824-.8792V24.45811a.19221.19221,0,0,1,.03527-.10978.3191.3191,0,0,1,.12228-.085.78166.78166,0,0,1,.22379-.04978,3.30139,3.30139,0,0,1,.35887-.01647,3.12787,3.12787,0,0,1,.34608.01647.67188.67188,0,0,1,.21554.04978.23679.23679,0,0,1,.10579.085.20443.20443,0,0,1,.03129.10978v7.06377Z"/><path class="cls-1" d="M71.32265,29.7244a2.44624,2.44624,0,0,1-.23,1.08825,2.24065,2.24065,0,0,1-.62618.77946,2.708,2.708,0,0,1-.9225.47068,4.21642,4.21642,0,0,1-1.88678.09123,4.2486,4.2486,0,0,1-.61568-.15951,2.72024,2.72024,0,0,1-.44789-.19906,1.224,1.224,0,0,1-.25707-.18258.4325.4325,0,0,1-.112-.22576,2.064,2.064,0,0,1-.033-.42941c0-.12625.004-.23.01023-.31509a1.00746,1.00746,0,0,1,.03955-.20732.23024.23024,0,0,1,.07449-.11175.1638.1638,0,0,1,.10581-.03325.51366.51366,0,0,1,.24056.0995,3.87866,3.87866,0,0,0,.39811.22184,3.5509,3.5509,0,0,0,.57843.22177,2.77349,2.77349,0,0,0,.78145.09957,1.82684,1.82684,0,0,0,.52239-.06852,1.19728,1.19728,0,0,0,.39184-.19906.82983.82983,0,0,0,.24486-.31509.98831.98831,0,0,0,.085-.41869.72965.72965,0,0,0-.1453-.45837,1.40038,1.40038,0,0,0-.37935-.33977,3.98384,3.98384,0,0,0-.53065-.28013c-.19906-.08707-.40437-.18026-.61368-.27553a5.65023,5.65023,0,0,1-.61365-.33187,2.545,2.545,0,0,1-.53292-.44368,2.10074,2.10074,0,0,1-.37935-.60936,2.207,2.207,0,0,1-.14532-.846,2.24724,2.24724,0,0,1,.20958-.993,2.0071,2.0071,0,0,1,.56592-.70923,2.3983,2.3983,0,0,1,.83773-.42286,3.66138,3.66138,0,0,1,1.024-.1388,3.62414,3.62414,0,0,1,.55766.04127,3.73874,3.73874,0,0,1,.52266.11627,2.90686,2.90686,0,0,1,.43112.16385.97684.97684,0,0,1,.24881.15124.443.443,0,0,1,.083.10354.50652.50652,0,0,1,.035.112,1.14238,1.14238,0,0,1,.023.17629c.002.07053.004.15956.004.26531,0,.116-.002.21559-.00826.2966a1.12185,1.12185,0,0,1-.031.20108.21276.21276,0,0,1-.06028.114.15015.15015,0,0,1-.10578.03722.514.514,0,0,1-.21328-.085c-.09752-.056-.21582-.11806-.35889-.18455a3.10746,3.10746,0,0,0-.49137-.18234,2.12184,2.12184,0,0,0-.61368-.083,1.42081,1.42081,0,0,0-.45387.06429.91892.91892,0,0,0-.32559.17634.69764.69764,0,0,0-.1948.26954.90758.90758,0,0,0-.06426.33358.73969.73969,0,0,0,.143.45414,1.3991,1.3991,0,0,0,.38361.34014,3.78679,3.78679,0,0,0,.54317.27786c.203.08695.40834.18026.61991.2778a6.56164,6.56164,0,0,1,.61964.32954,2.521,2.521,0,0,1,.53917.44362,2.09405,2.09405,0,0,1,.38363.60746,2.13453,2.13453,0,0,1,.145.82324Z"/><path class="cls-1" d="M77.65219,24.877a2.41106,2.41106,0,0,1-.0165.30058.79925.79925,0,0,1-.04549.20108.2784.2784,0,0,1-.0748.112.15824.15824,0,0,1-.10152.03723H75.44631v6.3358a.16285.16285,0,0,1-.03922.108.26832.26832,0,0,1-.13081.0788,1.25473,1.25473,0,0,1-.24655.04978,3.34063,3.34063,0,0,1-.38561.01849,3.3825,3.3825,0,0,1-.38561-.01849,1.26529,1.26529,0,0,1-.24485-.04978.24957.24957,0,0,1-.13053-.0788.16172.16172,0,0,1-.03952-.108v-6.3358H71.87406a.14716.14716,0,0,1-.10153-.03723.27821.27821,0,0,1-.07449-.112.91005.91005,0,0,1-.04578-.20108c-.00825-.083-.0145-.18228-.0145-.30058,0-.12026.00625-.2238.0145-.30879a.9068.9068,0,0,1,.04578-.20334.25572.25572,0,0,1,.07449-.10979.15447.15447,0,0,1,.10153-.03325h5.53982a.166.166,0,0,1,.10152.03325.25592.25592,0,0,1,.0748.10979.79874.79874,0,0,1,.04549.20334,2.55535,2.55535,0,0,1,.0165.30879Z"/><path class="cls-1" d="M80.18593,31.86373a.16383.16383,0,0,1-.04151.108.24849.24849,0,0,1-.13053.0788,1.2423,1.2423,0,0,1-.24256.04978,3.34794,3.34794,0,0,1-.38762.01849,3.39169,3.39169,0,0,1-.38589-.01849,1.25445,1.25445,0,0,1-.24654-.04978.26581.26581,0,0,1-.13053-.0788.16166.16166,0,0,1-.03951-.108V24.43962a.16155.16155,0,0,1,.03951-.108.26157.26157,0,0,1,.13451-.0788,1.32426,1.32426,0,0,1,.24484-.04978,4.0302,4.0302,0,0,1,.77123,0,1.26115,1.26115,0,0,1,.24256.04978.24811.24811,0,0,1,.13053.0788.16371.16371,0,0,1,.04151.108v7.42411Z"/><path class="cls-1" d="M87.12913,24.877a2.41106,2.41106,0,0,1-.0165.30058.79828.79828,0,0,1-.04551.20108.27827.27827,0,0,1-.07477.112.15833.15833,0,0,1-.10154.03723H84.92325v6.3358a.16285.16285,0,0,1-.03922.108.26832.26832,0,0,1-.13081.0788,1.255,1.255,0,0,1-.24655.04978,3.34113,3.34113,0,0,1-.38563.01849,3.38275,3.38275,0,0,1-.38561-.01849,1.26537,1.26537,0,0,1-.24483-.04978.24949.24949,0,0,1-.13052-.0788.16168.16168,0,0,1-.03953-.108v-6.3358H81.351a.14713.14713,0,0,1-.10152-.03723.278.278,0,0,1-.07449-.112.91163.91163,0,0,1-.0458-.20108c-.00823-.083-.01448-.18228-.01448-.30058,0-.12026.00625-.2238.01448-.30879a.90833.90833,0,0,1,.0458-.20334.25555.25555,0,0,1,.07449-.10979.15445.15445,0,0,1,.10152-.03325h5.53982a.16614.16614,0,0,1,.10154.03325.25581.25581,0,0,1,.07477.10979.79779.79779,0,0,1,.04551.20334,2.55535,2.55535,0,0,1,.0165.30879Z"/><path class="cls-1" d="M94.47272,29.15423a3.66607,3.66607,0,0,1-.21357,1.29361,2.55772,2.55772,0,0,1-.62392.966,2.7344,2.7344,0,0,1-1.022.60146,4.8733,4.8733,0,0,1-2.72653.0207,2.5965,2.5965,0,0,1-.997-.56185,2.48537,2.48537,0,0,1-.6222-.93927,3.66921,3.66921,0,0,1-.21556-1.31437V24.43962a.17184.17184,0,0,1,.03725-.108.23454.23454,0,0,1,.13082-.0788,1.35139,1.35139,0,0,1,.24456-.04978,3.38807,3.38807,0,0,1,.38987-.01849,3.25475,3.25475,0,0,1,.38133.01849,1.31542,1.31542,0,0,1,.24458.04978.26766.26766,0,0,1,.13079.0788.17367.17367,0,0,1,.03925.108v4.6418a2.57263,2.57263,0,0,0,.114.81075,1.50362,1.50362,0,0,0,.33185.56816,1.36111,1.36111,0,0,0,.51614.33585,1.92251,1.92251,0,0,0,.67168.114,1.86014,1.86014,0,0,0,.674-.11628,1.30593,1.30593,0,0,0,.50361-.33781,1.49089,1.49089,0,0,0,.31935-.54519,2.26761,2.26761,0,0,0,.112-.73819v-4.7331a.17171.17171,0,0,1,.03724-.108.235.235,0,0,1,.12656-.0788,1.3111,1.3111,0,0,1,.24655-.04978,3.38723,3.38723,0,0,1,.38559-.01849,3.22006,3.22006,0,0,1,.37966.01849,1.295,1.295,0,0,1,.24027.04978.2348.2348,0,0,1,.12655.0788.17012.17012,0,0,1,.03727.108v4.71461Z"/><path class="cls-1" d="M101.40992,24.877a2.40721,2.40721,0,0,1-.0165.30058.79741.79741,0,0,1-.04551.20108.27806.27806,0,0,1-.07476.112.15826.15826,0,0,1-.10152.03723H99.20406v6.3358a.16287.16287,0,0,1-.03924.108.26823.26823,0,0,1-.1308.0788,1.25466,1.25466,0,0,1-.24657.04978,3.34056,3.34056,0,0,1-.3856.01849,3.38256,3.38256,0,0,1-.3856-.01849,1.26517,1.26517,0,0,1-.24484-.04978.24937.24937,0,0,1-.13051-.0788.16161.16161,0,0,1-.03956-.108v-6.3358H95.63181a.1471.1471,0,0,1-.10152-.03723.27823.27823,0,0,1-.07452-.112.91062.91062,0,0,1-.04578-.20108c-.00822-.083-.0145-.18228-.0145-.30058,0-.12026.00628-.2238.0145-.30879a.90735.90735,0,0,1,.04578-.20334.25575.25575,0,0,1,.07452-.10979.15441.15441,0,0,1,.10152-.03325h5.53982a.16606.16606,0,0,1,.10152.03325.25562.25562,0,0,1,.07476.10979.79693.79693,0,0,1,.04551.20334,2.55125,2.55125,0,0,1,.0165.30879Z"/><path class="cls-1" d="M106.9975,31.45532a2.3043,2.3043,0,0,1-.01448.29433.76974.76974,0,0,1-.04551.19312.25139.25139,0,0,1-.07678.1055.15883.15883,0,0,1-.09953.03325h-3.94734a.49848.49848,0,0,1-.33812-.11829.4844.4844,0,0,1-.13677-.38563V24.72569a.48447.48447,0,0,1,.13677-.38563.49845.49845,0,0,1,.33812-.11824h3.9226a.16194.16194,0,0,1,.09725.031.2167.2167,0,0,1,.07255.1058.80213.80213,0,0,1,.04578.19508,2.37255,2.37255,0,0,1,.01649.30058,2.279,2.279,0,0,1-.01649.288.74294.74294,0,0,1-.04578.19085.23767.23767,0,0,1-.07255.10575.1496.1496,0,0,1-.09725.033h-2.80529V27.392h2.37393a.17893.17893,0,0,1,.10152.033.273.273,0,0,1,.07479.10379.70922.70922,0,0,1,.04546.18853,2.90814,2.90814,0,0,1,0,.5807.6764.6764,0,0,1-.04546.18431.21577.21577,0,0,1-.07479.0995.17771.17771,0,0,1-.10152.03128h-2.37393v2.21611h2.83a.16209.16209,0,0,1,.09953.03527.22742.22742,0,0,1,.07678.10574.73171.73171,0,0,1,.04551.19086,2.32791,2.32791,0,0,1,.01448.29427Z"/></svg>